<svg xmlns="http://www.w3.org/2000/svg" width="337" height="248" fill="none"><path fill="#7A7A7A" d="M48.587 31.563C26.032 33.23 10.995 40.518 5.38 52.51c-7.53 16.078 2.399 39.461 27.6 65.003 25.202 25.543 63.612 51.153 106.782 71.196 21.376 9.925 43.277 18.184 64.452 24.307 21.175 6.122 41.211 9.988 58.962 11.376 17.751 1.388 32.87.272 44.495-3.286 11.625-3.557 19.527-9.486 23.255-17.448 7.53-16.078-2.398-39.461-27.6-65.003-25.201-25.543-63.612-51.153-106.782-71.197-26.767-12.428-54.273-22.206-80.081-28.467-25.808-6.26-49.122-8.812-67.875-7.428Zm24.914 20.5c16.522-1.217 37.066 1.078 59.811 6.684 22.745 5.605 46.99 14.347 70.586 25.45 18.842 8.867 36.855 19.045 53.009 29.951 16.154 10.907 30.132 22.329 41.138 33.615 11.006 11.286 18.824 22.214 23.006 32.161 4.182 9.947 4.648 18.718 1.37 25.812-6.62 14.326-28.086 20.952-59.675 18.42s-70.714-14.015-108.767-31.922c-38.055-17.907-71.92-40.772-94.149-63.565-22.227-22.793-30.996-43.646-24.377-57.973C40.39 60.012 53.63 53.528 73.501 52.063Z"/><path fill="#FF8A00" d="M142.718 24c6.627 0 12-5.373 12-12s-5.373-12-12-12-11.999 5.373-11.999 12 5.372 12 11.999 12ZM166.334 45.8c6.627 0 11.999-5.372 11.999-12 0-6.627-5.372-12-11.999-12-6.627 0-11.999 5.373-11.999 12 0 6.628 5.372 12 11.999 12ZM189.95 67.6c6.627 0 11.999-5.372 11.999-12 0-6.627-5.372-12-11.999-12-6.627 0-11.999 5.373-11.999 12 0 6.628 5.372 12 11.999 12ZM137.452 52.884c6.627 0 11.999-5.373 11.999-12 0-6.628-5.372-12-11.999-12-6.627 0-11.999 5.372-11.999 12 0 6.627 5.372 12 11.999 12ZM160.067 73.684c6.627 0 12-5.373 12-12s-5.373-12-12-12-11.999 5.373-11.999 12 5.372 12 11.999 12ZM131.381 80.572c6.627 0 12-5.373 12-12 0-6.628-5.373-12-12-12s-11.999 5.372-11.999 12c0 6.627 5.372 12 11.999 12ZM4.324 198.257v-11.96l52.9.092c2.699 0 4.753-.613 6.164-1.84 1.472-1.288 2.208-3.343 2.208-6.164 0-2.821-.736-4.845-2.208-6.072-1.41-1.288-3.465-1.932-6.164-1.932H24.288c-6.808 0-12.113-1.625-15.916-4.876-3.741-3.312-5.612-8.157-5.612-14.536s1.87-11.193 5.612-14.444c3.803-3.312 9.108-4.968 15.916-4.968h51.704v11.96l-50.14-.092c-2.637 0-4.692.613-6.164 1.84-1.472 1.165-2.208 3.067-2.208 5.704 0 2.637.736 4.569 2.208 5.796 1.472 1.165 3.527 1.748 6.164 1.748h32.936c6.808 0 12.083 1.687 15.824 5.06 3.803 3.312 5.704 8.249 5.704 14.812 0 6.501-1.901 11.439-5.704 14.812-3.741 3.373-9.016 5.06-15.824 5.06H4.324Zm86.222-.46v-65.78h55.107c6.808 0 12.083 1.717 15.824 5.152 3.803 3.435 5.704 8.648 5.704 15.64 0 6.992-1.901 12.205-5.704 15.64-3.741 3.435-9.016 5.152-15.824 5.152h-40.388v24.196h-14.72Zm53.359-53.82h-38.64v17.572l38.64.092c2.699 0 4.754-.675 6.164-2.024 1.472-1.349 2.208-3.619 2.208-6.808 0-3.251-.736-5.52-2.208-6.808-1.41-1.349-3.465-2.024-6.164-2.024Zm33.441 53.82v-65.78h12.328l30.452 21.344h.46l30.452-21.344h12.328v65.78h-14.72v-47.38l-20.884 13.984v33.396h-14.72v-33.396l-20.976-13.984v47.38h-14.72Z"/></svg>